Coordinates
version=1
nRows=14
nColumns=36
inDegrees=yes

Units are S.I. units (second, meters, Newtons, ...)
If the header above contains a line with 'inDegrees', this indicates whether rotational values are in degrees (yes) or radians (no).

endheader
time	pelvis_tilt	pelvis_list	pelvis_rotation	pelvis_tx	pelvis_ty	pelvis_tz	hip_flexion_r	hip_adduction_r	hip_rotation_r	knee_angle_r	knee_angle_r_beta	ankle_angle_r	subtalar_angle_r	mtp_angle_r	hip_flexion_l	hip_adduction_l	hip_rotation_l	knee_angle_l	knee_angle_l_beta	ankle_angle_l	subtalar_angle_l	mtp_angle_l	lumbar_extension	lumbar_bending	lumbar_rotation	arm_flex_r	arm_add_r	arm_rot_r	elbow_flex_r	pro_sup_r	arm_flex_l	arm_add_l	arm_rot_l	elbow_flex_l	pro_sup_l
      1.55416670	    -11.06380667	     -0.66332106	      6.16612919	     -0.95794320	      1.23416672	     -0.08349976	      9.01266413	     -0.72276056	     -4.43731262	      4.75823809	      0.08304692	      5.31448589	     -7.44647719	     -7.49999987	     11.56135720	     -0.17523493	      5.80331307	      6.52627206	      0.11390494	      4.46492850	     -6.51603118	     -7.49999987	     -0.70317287	      3.63453497	      9.09485190	    -36.20184926	    -35.74287605	     26.37870493	    105.29775987	     93.21206024	     -4.84436663	    -44.86736732	     57.50968009	    100.90379042	    107.50682840
      1.55833330	    -11.03532216	     -0.62867879	      6.23072090	     -0.95705997	      1.23752123	     -0.08442860	      8.98535488	     -0.75434097	     -4.47426416	      4.76544205	      0.08317265	      5.26297107	     -7.37022013	     -7.49999987	     11.55031427	     -0.14379652	      5.87466459	      6.54205686	      0.11418043	      4.28242607	     -6.72827913	     -7.49999987	     -0.70892767	      3.59232608	      9.15642081	    -36.26095012	    -35.48671121	     26.17944483	    105.01047790	     94.42553725	     -4.48816715	    -44.82472721	     57.76178826	    100.75788653	    109.63165262
      1.56250000	    -10.95956641	     -0.62765909	      6.27355511	     -0.95738170	      1.23712541	     -0.08473260	      8.90744548	     -0.74926266	     -4.49745759	      4.74065370	      0.08274002	      5.17541651	     -7.44748788	     -7.49999987	     11.44536647	     -0.16112825	      5.83841142	      6.49715095	      0.11339668	      4.20170708	     -6.71390917	     -7.49999987	     -0.76949668	      3.59995033	      9.08034213	    -36.18372350	    -35.42549898	     26.44738150	    104.83954432	     93.13218872	     -4.45074209	    -44.86376338	     57.80692080	    100.72971291	    107.69359472
      1.56666670	    -10.93339442	     -0.60857365	      6.31027434	     -0.95643471	      1.23654286	     -0.08459915	      8.90037333	     -0.77763409	     -4.52099479	      4.75605128	      0.08300875	      5.14609059	     -7.39290280	     -7.49999987	     11.39577362	     -0.14352746	      5.86156468	      6.47862153	      0.11307328	      4.09574878	     -6.73870515	     -7.49999987	     -0.76761064	      3.62215660	      9.05503936	    -36.20336843	    -35.41019811	     26.37508404	    104.77397445	     93.40372890	     -4.37645297	    -44.82790714	     57.78784683	    100.70605114	    108.72589931
      1.57083330	    -10.97114247	     -0.59911311	      6.32056928	     -0.95697905	      1.23838193	     -0.08436260	      8.96897905	     -0.79022399	     -4.47224708	      4.75279712	      0.08295196	      5.12375589	     -7.31834730	     -7.49999987	     11.40242188	     -0.14055223	      5.81283697	      6.41702345	      0.11199819	      4.07539578	     -6.53617649	     -7.49999987	     -0.75738374	      3.63159910	      9.04071469	    -36.14931118	    -35.38235479	     26.25105809	    104.78060691	     94.88442291	     -4.43998777	    -44.81191577	     57.63279072	    100.70924595	    109.73279452
      1.57500000	    -10.92737382	     -0.59600457	      6.38048610	     -0.95670468	      1.23957093	     -0.08411553	      8.91519613	     -0.79835022	     -4.49689282	      4.71360383	      0.08226791	      5.12815539	     -7.17992734	     -7.49999987	     11.33208773	     -0.13030675	      5.93802191	      6.35675456	      0.11094630	      3.97638595	     -6.54048301	     -7.49999987	     -0.83239901	      3.63230432	      9.00634906	    -36.08974516	    -35.33694842	     26.15001764	    104.70057243	     94.81120984	     -4.31665565	    -44.79103602	     57.74555659	    100.62383725	    109.43893567
      1.57916670	    -10.97584872	     -0.58581318	      6.38978713	     -0.95639358	      1.23909667	     -0.08367879	      8.95894603	     -0.80797296	     -4.46262696	      4.67416114	      0.08157950	      5.06707067	     -7.21869664	     -7.49999987	     11.34997567	     -0.12125401	      5.94197594	      6.30141354	      0.10998041	      3.95148378	     -6.31595492	     -7.49999987	     -0.76604047	      3.59984320	      8.98931832	    -36.01159324	    -35.26193743	     26.25550045	    104.57438516	     94.04365371	     -4.39372301	    -44.78011643	     57.64367157	    100.59481248	    108.98119039
      1.58333330	    -10.84080618	     -0.56963647	      6.41237202	     -0.95787584	      1.23877311	     -0.08246446	      8.80192532	     -0.77455052	     -4.38830558	      4.62621111	      0.08074262	      5.03329945	     -7.31436409	     -7.49999987	     11.18430414	     -0.14776007	      5.96637262	      6.24701603	      0.10903100	      3.89861754	     -6.27654838	     -7.49999987	     -1.06199002	      3.54760367	      8.93436416	    -35.88170721	    -35.25871944	     26.38352711	    104.54592646	     93.33941350	     -4.41433135	    -44.83534326	     57.53329112	    100.61161363	    108.37644742
      1.58750000	    -10.85309057	     -0.54943397	      6.42950144	     -0.95699873	      1.24239768	     -0.08242975	      8.78203757	     -0.76704615	     -4.23389675	      4.53917872	      0.07922361	      4.86150748	     -7.56199602	     -7.49999987	     11.19217416	     -0.15212546	      6.10711727	      6.19725480	      0.10816250	      3.66725563	     -6.36448630	     -7.49999987	     -1.10803976	      3.49954811	      8.92662852	    -35.79519299	    -35.15178269	     26.29282990	    104.46557492	     93.22500707	     -4.46065232	    -44.82322343	     57.36772454	    100.55581588	    108.60645833
      1.59166670	    -10.79656004	     -0.51227793	      6.44431315	     -0.95757761	      1.23953934	     -0.08229074	      8.70415467	     -0.78398076	     -4.45000859	      4.50599442	      0.07864444	      5.08725552	     -7.12404801	     -7.49999987	     11.12831257	     -0.16118576	      5.91268255	      6.21189631	      0.10841804	      3.81385115	     -5.89417728	     -7.49999987	     -1.25878270	      3.42386452	      8.96219646	    -35.74351774	    -35.09395043	     26.19203359	    104.47155858	     94.47252570	     -4.47221708	    -44.86318621	     57.20872060	    100.58098238	    109.40333000
      1.59583330	    -10.83489951	     -0.48509303	      6.47966597	     -0.95690000	      1.23871704	     -0.08288545	      8.71436953	     -0.80817114	     -4.52430525	      4.46673234	      0.07795919	      5.00874405	     -7.10342422	     -7.49999987	     11.16500819	     -0.15576177	      5.87202772	      6.21716144	      0.10850994	      3.76642804	     -5.71726594	     -7.49999987	     -1.15542482	      3.37555999	      8.93748538	    -35.67070959	    -35.17057809	     26.27349572	    104.51428944	     93.76914111	     -4.54238377	    -44.86922650	     57.16918105	    100.54506308	    108.40433167
      1.60000000	    -10.69454550	     -0.45344904	      6.48840600	     -0.95636277	      1.23420954	     -0.08395403	      8.54319021	     -0.83208515	     -4.48792988	      4.44809196	      0.07763385	      5.15603244	     -7.21649401	     -7.49999987	     11.02767901	     -0.14484124	      5.93781007	      6.26433300	      0.10933324	      3.90295689	     -5.84921000	     -7.49999987	     -1.42746545	      3.34886686	      8.80487949	    -35.59720620	    -35.50089391	     26.37612509	    104.98341267	     93.27153686	     -5.01907311	    -44.98504864	     56.70895215	    100.88012026	    107.14627881
      1.60416670	    -10.93998143	     -0.46577286	      6.56418851	     -0.95634005	      1.23723195	     -0.08392193	      8.84344481	     -0.88971573	     -4.75754099	      4.55256624	      0.07945727	      5.16086081	     -7.15857724	     -7.49999987	     11.28589518	     -0.13246882	      5.89932907	      6.25009446	      0.10908473	      3.98829787	     -5.53764665	     -7.49999987	     -1.01062326	      3.35342364	      8.70638625	    -35.69878718	    -35.65040969	     26.59097543	    105.08263898	     91.51041069	     -5.20722105	    -45.01362726	     56.78143100	    100.91502485	    105.87206771
      1.60833330	    -10.69137904	     -0.41538053	      6.53430501	     -0.95717446	      1.23746298	     -0.08491217	      8.58860293	     -0.93975507	     -4.66358319	      4.57256900	      0.07980638	      5.24187420	     -7.33016165	     -7.49999987	     10.97440277	     -0.09890171	      5.91309640	      6.20896705	      0.10836692	      4.13765026	     -5.54910975	     -7.49999987	     -1.41362496	      3.34837301	      8.75996570	    -35.70908776	    -35.74075795	     26.45216167	    105.31830341	     91.33211202	     -5.13620372	    -45.01857007	     56.85412824	    101.01346051	    106.02698197
